# xmcd
#
# Track frame offsets: 
#        150
#        5792
#        14314
#        22221
#        30473
#        40287
#        49264
#        56894
#        65171
#        69968
#        77095
#        85104
#        93179
#        101111
#        106603
#        116777
#        125442
#        136796
#        147093
#        156615
#        160695
#        169684
#        174836
#        181251
#
# Disc length: 2508 seconds
#
# Revision: 0
# Processed by: cddbd v1.5.2PL0 Copyright (c) Steve Scherf et al.
# Submitted via: ExactAudioCopyFreeDBPlugin 1.0
#
DISCID=4009ca18
DTITLE=Various Artist - Smoky Mountain Pickin'
DYEAR=2003
DGENRE=Bluegrass
TTITLE0=Various Artist - Cumberland Gap
TTITLE1=Various Artist - Whistlin' Rufus
TTITLE2=Various Artist - Wheel Hoss
TTITLE3=Various Artist - Banjo On The Mountain
TTITLE4=Various Artist - Kansas City Railroad Blues
TTITLE5=Various Artist - Kitty Clyde
TTITLE6=Various Artist - Dill Pickle Rag
TTITLE7=Various Artist - Paddy On The Turnpike
TTITLE8=Various Artist - Big Ball In Memphis
TTITLE9=Various Artist - Foggy Mountain Top
TTITLE10=Various Artist - Eighth Of January
TTITLE11=Various Artist - Hot Corn-Cold Corn
TTITLE12=Various Artist - Pretty Polly
TTITLE13=Various Artist - Cotton Eyed Joe
TTITLE14=Various Artist - Mandolin Bluegrass Special
TTITLE15=Various Artist - Old Joe Clark
TTITLE16=Various Artist - Lost Indian
TTITLE17=Various Artist - Fireball Mail
TTITLE18=Various Artist - Backtrackin'
TTITLE19=Various Artist - Devilish Mary
TTITLE20=Various Artist - Cannonball Blues
TTITLE21=Various Artist - Casey Jones
TTITLE22=Various Artist - Gray Eagle
TTITLE23=Various Artist - Dixie
EXTD=
EXTT0=
EXTT1=
EXTT2=
EXTT3=
EXTT4=
EXTT5=
EXTT6=
EXTT7=
EXTT8=
EXTT9=
EXTT10=
EXTT11=
EXTT12=
EXTT13=
EXTT14=
EXTT15=
EXTT16=
EXTT17=
EXTT18=
EXTT19=
EXTT20=
EXTT21=
EXTT22=
EXTT23=
PLAYORDER=
